Patient4_TMGait_0pt7_01_left_14_EMG.mot
version=1
nRows=16
nColumns=33
inDegrees=no
endheader
time	1LAddLong	2LGlutMax	3LGlutMed	4LIliopsoas	5LSemiMemb	6LBicFemLong	7LRecFem	8LVastMed	9LVastLat	10LGasMed	11LTibAnt	12lTibPost	13LPeroneusLong	14LSol	15LExtDigLong	16LFlexDigLong	17RAddLong	18RGlutMax	19RGlutMed	20RIliopsoas	21RSemiMemb	22RBicFemLong	23RRecFem	24RVastMed	25RVastLat	26RGasMed	27RTibAnt	28RTibPost	29RPeroneusLong	30RSol	31RExtDigLong	32RFlexDigLong
16.845	-0.004578	0.094757	0.50171	-0.005646	0.015869	0.11765	-0.14038	0.012817	-0.045166	0.090332	0.013428	0.20996	0.058136	0.018921	-0.048218	0.044556	0.039825	-0.13504	0.076904	-0.081177	-0.5072	-0.61706	-0.052185	0.17731	-0.12787	0.001373	0.066833	-0.00351	0.060272	0.033722	-0.000916	-0.013123
16.846	0.010529	0.12695	0.5014	-0.005188	0.05127	0.11139	-0.1622	0.008545	-0.030823	0.13702	0.014343	0.12695	0.054932	0.22003	-0.002594	0.28656	0.07431	-0.11017	0.032043	-0.098419	-0.60257	-1.2672	-0.009766	0.41504	-0.13641	0.001984	0.24933	0.000763	0.10681	0.040436	0.003204	-0.005188
16.847	-0.00412	0.15518	0.49164	-0.009308	0.041962	0.06546	-0.13947	0.001831	-0.021362	-0.02594	0.007782	-0.005188	0.069122	0.20004	0.023651	-0.020294	0.076294	-0.045776	-0.05127	-0.085907	-0.25665	-1.2605	0.042114	0.35278	-0.057831	0.008087	0.028687	-0.004578	0.30243	-0.026245	0.002136	0.002747
16.848	0.005341	0.12695	0.58289	0.00473	-0.00473	-0.000916	-0.13504	-0.009766	-0.009003	-0.24262	0.03006	-0.023041	0.012665	0.10712	0.003662	-0.16312	0.10742	-0.14938	0.034027	0.026245	0.44952	-1.125	0.082703	0.26871	0.005035	-0.000153	-0.19241	-0.007172	0.12772	0.005188	0.001831	-0.005341
16.849	0.01297	0.12665	0.59067	0.00061	-0.02182	0.021973	-0.16174	0.004272	-0.021057	-0.66803	0.020905	-0.03418	-0.02121	0.12085	-0.009155	-0.072784	0.16739	-0.18616	-0.042572	0.10849	0.98663	-1.315	0.20432	0.21912	-0.050659	-0.000305	-0.35736	-0.007324	-0.23804	0.077209	0.002289	-0.006561
16.85	0.019836	0.094299	0.5867	-0.001831	0.013123	-0.009308	-0.15564	0.001526	-0.029602	-0.28549	0.022125	-0.02182	-0.049744	0.084686	0.000763	-0.02533	0.18555	-0.093231	0.048523	0.074158	0.99472	-1.5814	-0.01709	0.072479	-0.15991	-0.012054	-0.27084	-0.010071	-0.28778	0.066223	-0.002594	0.003662
16.851	0.013885	0.041351	0.60242	-0.007172	0.034943	-0.037994	-0.13397	0.001831	-0.030518	-0.027771	0.007629	-0.016937	-0.044403	0.049591	0.016479	-0.007019	0.15289	0.006104	-0.15793	0.077972	0.62088	-1.6763	-0.19714	-0.31982	-0.16083	-0.009766	-0.046082	-0.010834	0.080109	0.055237	-0.00061	0.000153
16.852	0.006409	0.067139	0.61752	-0.016022	0.028839	-0.019226	-0.1091	0.005493	-0.034943	-0.31525	-0.000458	-0.002441	0.028229	0.14816	0.024719	-0.005035	0.054779	0.076447	-0.29968	0.063019	0.44983	-1.5758	-0.38559	-0.52261	0.14755	-0.008545	-0.034485	-0.005646	0.77789	0.031128	-0.00061	0.008545
16.853	0.003815	0.069427	0.6337	-0.001526	0.024567	0.004425	-0.082092	0.005341	-0.033264	-0.47241	0.016632	-0.005188	0.0383	0.1796	0.033569	-0.013885	-0.088196	0.040131	-0.54428	0.045624	0.60745	-1.4204	-0.58853	-0.74326	0.45853	-0.002899	-0.009003	-0.001068	0.18509	-0.046234	-0.002136	0.008392
16.854	0.012512	0.055847	0.63599	0.010376	0.017853	0.022736	-0.0914	0.007629	-0.026703	-0.17319	0.012665	-0.025635	0.095215	0.18372	0.038605	-0.010223	-0.23926	0.10086	-0.20477	0.016785	0.71045	-1.0182	-0.73944	-0.81955	0.5423	-0.009155	-0.031891	-0.004425	0.059967	-0.064087	0.004272	0.000763
16.855	0.010071	0.060425	0.62088	0.016479	-0.003357	0.046082	-0.12405	-0.005951	-0.006256	0.50934	0.009308	-0.36697	-0.009613	0.18875	0.041199	-0.01236	-0.25391	0.22079	0.26672	0.024109	0.38025	-0.7103	-0.46799	-0.3479	0.35736	-0.002899	-0.002594	-0.001678	0.19287	-0.062866	-0.000458	-0.010223
16.856	0.002747	0.038147	0.63919	0.010529	-0.02655	0.075684	-0.10956	0.003357	-0.013733	0.57281	0.012512	0.21896	-0.025024	0.27802	0.041809	-0.056915	-0.11627	0.27817	0.47073	0.007629	0.39902	-0.55969	-0.24353	-0.14374	0.087433	-0.002441	0.016174	-0.010071	-0.057373	-0.0354	-0.003662	-0.011292
16.857	-0.002289	0.021973	0.63705	0.007477	-0.020142	0.057831	-0.095673	-0.003662	-0.00824	0.002441	-0.003357	0.41184	0.01236	0.30685	0.05661	-0.04776	-0.12558	0.30304	0.30029	0.011139	0.4892	-0.41885	-0.44037	0.20111	0.46432	-0.00946	0.079651	-0.003662	0.31876	0.049133	-0.00473	-0.014954
16.858	0.007935	0.038452	0.63156	0.010681	0.005341	0.016785	-0.096588	-0.000916	-0.001526	0.044708	-0.006409	0.003204	0.084686	0.4277	0.039673	-0.026398	-0.10559	0.24948	0.11978	-0.11688	0.43076	-0.3241	-0.49194	0.26047	0.78308	-0.012207	0.11795	-0.008087	0.61966	0.040588	0.000763	-0.005798
16.859	0.001221	-0.016785	0.63568	0.017548	0.00885	-0.029907	-0.052948	0.001831	-0.00824	0.77423	0.010681	-0.11505	0.051575	0.24353	0.001373	-0.006256	-0.063782	0.13458	0.31967	-0.22079	0.25574	-0.25971	-0.28656	0.10117	0.55679	-0.003204	0.12451	-0.001678	-0.97916	-0.024109	-0.001831	-0.01297
16.86	-0.000458	0.028687	0.62775	-0.006256	-0.02121	0.010986	-0.050049	-0.002136	0.002899	0.57327	-0.008087	-0.078278	0.045776	0.11444	-0.021057	0.037994	-0.06012	0.097656	0.26459	-0.12207	0.15945	-0.31525	-0.17136	-0.26688	0.06897	0.001526	0.076904	0.000458	-0.65567	-0.086212	0.000153	-0.002899
